<?xml version="1.0" encoding="utf-8"?>
<!-- Generator: Adobe Illustrator 16.0.0, SVG Export Plug-In . SVG Version: 6.00 Build 0)  -->
<!DOCTYPE svg PUBLIC "-//W3C//DTD SVG 1.1//EN" "http://www.w3.org/Graphics/SVG/1.1/DTD/svg11.dtd">
<svg version="1.1" xmlns="http://www.w3.org/2000/svg" xmlns:xlink="http://www.w3.org/1999/xlink" x="0px" y="0px"
	 width="548.007px" height="164px" viewBox="0 0 548.007 164" style="enable-background:new 0 0 548.007 164;" xml:space="preserve"
	>
<style type="text/css">
<![CDATA[
	.st0{fill:#0092B7;}
]]>
</style>
<g id="Layer_3">
	<g>
		<path class="st0" d="M172.349,16.468l20.486-5.272l-5.272,49.408c3.615-3.766,10.545-9.037,21.391-9.037
			c17.774,0,26.21,13.857,26.21,32.537c0,25.155-17.021,42.328-41.575,42.328c-22.444,0-31.482-12.503-31.482-12.503L172.349,16.468
			z M182.14,106.096c1.507,1.355,5.423,4.067,14.009,4.067c10.695,0,19.13-8.586,19.13-25.006c0-11.749-4.82-17.323-14.159-17.323
			c-7.833,0-12.955,4.369-15.666,7.382L182.14,106.096z"/>
		<path class="st0" d="M236.815,124.172l7.381-70.497h19.884l-7.381,70.497H236.815z M255.494,42.076
			c-6.778,0-10.996-4.369-10.996-10.545c0-7.531,5.724-12.954,13.557-12.954c6.628,0,10.846,4.368,10.846,10.544
			C268.9,36.653,263.327,42.076,255.494,42.076z"/>
		<path class="st0" d="M318.758,120.406c0,0-9.039,6.025-22.746,6.025c-15.215,0-24.102-7.382-22.144-26.06l3.163-29.826h-11.448
			l4.52-17.021h8.736l1.657-15.968l20.486-5.272l-2.26,21.24h22.294l-1.808,17.021h-22.294l-2.862,27.114
			c-0.753,7.683,1.507,10.695,7.984,10.695c7.833,0,12.954-3.767,12.954-3.767L318.758,120.406z"/>
		<path class="st0" d="M331.708,16.468l20.486-5.272l-5.272,49.408c3.615-3.766,10.545-9.037,21.391-9.037
			c17.774,0,26.21,13.857,26.21,32.537c0,25.155-17.021,42.328-41.575,42.328c-22.444,0-31.482-12.503-31.482-12.503L331.708,16.468
			z M341.499,106.096c1.507,1.355,5.423,4.067,14.009,4.067c10.695,0,19.131-8.586,19.131-25.006
			c0-11.749-4.82-17.323-14.159-17.323c-7.833,0-12.955,4.369-15.666,7.382L341.499,106.096z"/>
		<path class="st0" d="M472.546,119.954c0,0-7.08,5.121-16.118,5.121c-8.436,0-12.804-3.163-14.009-9.489h-0.151
			c-3.766,3.916-12.201,10.846-24.252,10.846c-15.214,0-22.143-9.792-20.336-26.964l4.52-43.383l20.336-3.465l-4.369,41.274
			c-1.205,10.846,1.959,14.762,8.888,14.762c6.93,0,12.804-4.368,15.516-6.778l4.67-44.438l20.486-5.272l-5.573,52.572
			c-0.302,3.313,0.451,4.519,3.012,4.519c2.41,0,6.177-1.656,6.177-1.656L472.546,119.954z"/>
		<path class="st0" d="M474.049,163.789l19.884-39.617h-2.41l-19.13-70.497h21.992l10.695,49.86l20.787-49.86h22.144
			l-53.626,110.114H474.049z"/>
	</g>
</g>
<g id="Diamond">
	<g>
		<path class="st0" d="M2.544,64.21c3.278-5.302,6.51-10.632,9.836-15.901l9.921-15.845l0.077-0.123l0.147-0.125l7.159-6.039
			c2.389-2.01,4.764-4.036,7.175-6.019L51.277,8.206l0.359-0.298l0.508-0.07l22.727-3.136l11.363-1.567
			c3.789-0.512,7.573-1.07,11.367-1.543l0.595-0.074l0.566,0.229l26.235,10.596l0.488,0.197l0.375,0.399l28.101,29.933l1.397,1.488
			l-1.123,1.734l-7.461,11.526c-2.471,3.853-5.029,7.649-7.539,11.477l-15.128,22.919l-15.128,22.919l-7.564,11.459
			c-2.532,3.813-5.02,7.655-7.587,11.445l-1.302,1.922l-1.854-1.283l-30.666-21.244l-15.333-10.621
			c-2.553-1.773-5.118-3.53-7.652-5.332L29.4,95.904l-0.139-0.099l-0.077-0.091L15.833,80.087c-2.222-2.607-4.46-5.2-6.657-7.83
			l-6.69-7.951L2.544,64.21z M2.859,64.278l27.32,30.548l-0.033-0.028l61.92,41.611l-0.326,0.065l60.059-91.973l0.03,0.354
			l-27.945-30.078l0.091,0.063L97.796,4.108l0.119,0.016L52.382,9.747l0.103-0.043l-29.171,23.49l0.037-0.041L2.859,64.278z"/>
	</g>
	<polygon class="st0" points="7.877,61.172 24.986,36.471 40.311,51.503 	"/>
	<polygon class="st0" points="7.578,64.892 41.053,55.068 30.788,90.332 	"/>
	<polygon class="st0" points="33.469,91.969 44.175,54.179 105.329,83.933 	"/>
	<polygon class="st0" points="90.594,132.585 108.452,86.462 35.104,94.797 	"/>
	<polygon class="st0" points="97.439,122.164 111.424,85.569 140.586,56.857 	"/>
	<polygon class="st0" points="112.173,80.961 115.893,25.015 147.727,45.547 	"/>
	<polygon class="st0" points="109.79,79.622 90.594,46.89 113.063,26.649 	"/>
	<polygon class="st0" points="107.407,81.704 88.663,47.781 47.598,52.839 	"/>
	<polygon class="st0" points="140.586,37.669 117.976,23.234 123.028,19.065 	"/>
	<polygon class="st0" points="115.146,21.3 120.351,16.538 104.727,9.688 	"/>
	<g>
		<path class="st0" d="M72.989,23.717l-6.181,5.423c2.576,0.45,10.768,2.413,13.625-1.347C82.847,24.632,75.21,24.033,72.989,23.717
			z"/>
		<path class="st0" d="M78.774,18.643l-3.58,3.14c1.736,0.227,7.19,1.219,8.883-0.827C85.588,19.12,80.328,18.815,78.774,18.643z"/>
		<path class="st0" d="M99.08,7.46l-45.681,5.355l-26.483,21.72l16.962,16.074l45.082-5.512l23.954-22.162L99.08,7.46z M90.435,20.9
			c-0.602,1.574-2.428,2.423-4.814,2.767c3.063,0.937,4.602,2.563,2.436,5.949c-3.47,5.424-10.143,6.09-18.162,4.958l-7.149,7.933
			l-5.001-1.246l7.733-7.469c-1.093-0.217-2.194-0.444-3.301-0.693l-8.237,7.215l-4.547-1.139l8.861-6.941
			c-0.903-0.182-1.806-0.377-2.728-0.564l-4.807-0.959l6.032-3.35c0,0,2.482,0.471,2.482,0.426c0.983,0.178,1.998-0.326,2.52-0.648
			l7.688-5.6c0.109,0.012,0.215,0.027,0.314,0.039c-0.113-0.027-0.216-0.039-0.296-0.056l3.994-2.905
			c0.28-0.294,0.371-0.643-0.678-0.76c0.062-0.018-1.843-0.205-1.843-0.205l1.975-1.275l3.353,0.354h-0.005
			c0.512,0.057,1.05,0.107,1.599,0.156l2.27-1.774l2.352,0.228l-2.035,1.78c0.696,0.06,1.401,0.134,2.09,0.2l1.863-1.797
			l2.455,0.229l-1.707,1.9C88.566,18.172,91.15,19.032,90.435,20.9z"/>
	</g>
</g>
</svg>
