<?xml version="1.0" encoding="utf-8"?>
<!-- Generated by IcoMoon.io -->
<!DOCTYPE svg PUBLIC "-//W3C//DTD SVG 1.1//EN" "http://www.w3.org/Graphics/SVG/1.1/DTD/svg11.dtd">

<svg version="1.1" xmlns="http://www.w3.org/2000/svg" xmlns:xlink="http://www.w3.org/1999/xlink" width="32" height="32" viewBox="0 0 32 32">
<defs>
<g id="icon-user">
	<path class="path1" d="M14.499 0.369c-1.107 0-0.937 0.34-1.532 0.426-0.595 0.086 0.121-0.086-1.667 0.256-1.787 0.34-2.419 2.638-2.503 3.49-0.085 0.851-0.106 3.242-0.049 4.518 0.17 0.766-0.426 0.766-0.426 0.766-1.071-0.069-0.589 3.268-0.589 3.268 0.154 0.823-0.055 1.232 1.531 1.869 0.755 2.151 2.677 3.239 2.677 3.239s0.095 1.379 0.126 2.362c-0.161-0.080 0.517 2.512-4.409 3.239-4.926 0.727-5.869 2.322-6.798 3.21s-0.858 4.989-0.858 4.989h31.72c0 0-0.202-4.1-1.13-4.989-0.928-0.889-1.941-2.483-6.867-3.21-4.925-0.728-4.052-3.248-4.087-3.402 0.009-0.387 0.181-2.029 0.181-2.029s1.587-1.32 2.342-3.472c1.189-0.751 1.641-0.855 1.837-1.72 0 0 0.402-3.269-0.875-3.269 0 0-0.532 0.086-0.362-0.68 0.17-0.766 0.114-3.157 0.029-4.009-0.084-0.851 0.164-3.284-1.624-3.624-1.219-0.227-1.361 0.117-1.957 0.033s-1.305-1.627-2.411-1.627l-2.298 0.369z" />
</g>
</defs>

<g fill="#000000">
	<use xlink:href="#icon-user" transform="translate(0 0)"></use>
</g>

</svg>
